<?xml version="1.0" encoding="UTF-8" standalone="no"?> <svg width="24" height="24" viewBox="0 0 24 24" fill="none" xmlns="http://www.w3.org/2000/svg">
<path fill-rule="evenodd" clip-rule="evenodd" d="M6.77947 6C5.34943 6 4.11818 7.00938 3.83773 8.41165L2.05548 17.3229C1.88196 18.1905 2.54558 19 3.4304 19C3.8279 19 4.20672 18.8313 4.47262 18.5358L7.36291 15.3242C8.12148 14.4813 9.20217 14 10.3362 14H13.664C14.7979 14 15.8785 14.4813 16.6371 15.3241L19.5278 18.5359C19.7938 18.8313 20.1726 19 20.5701 19C21.4549 19 22.1185 18.1905 21.945 17.3228L20.1628 8.41165C19.8823 7.00938 18.6511 6 17.221 6H6.77947ZM1.87657 8.01942C2.34399 5.6823 4.39607 4 6.77947 4H17.221C19.6044 4 21.6565 5.6823 22.1239 8.01942L23.9062 16.9306C24.3272 19.0358 22.717 21 20.5701 21C19.6056 21 18.6865 20.5907 18.0413 19.8738L15.1505 16.662C14.7712 16.2406 14.2309 16 13.664 16H10.3362C9.76916 16 9.22882 16.2407 8.84953 16.6621L5.95925 19.8737C5.31405 20.5906 4.39489 21 3.4304 21C1.28349 21 -0.326721 19.0359 0.0943229 16.9306L1.87657 8.01942ZM9.00002 11C9.00002 10.4477 9.44774 10 10 10H14C14.5523 10 15 10.4477 15 11C15 11.5523 14.5523 12 14 12H10C9.44774 12 9.00002 11.5523 9.00002 11Z" fill="#293644"/>
</svg>
