<?xml version="1.0" encoding="UTF-8" standalone="no"?> <svg xmlns="http://www.w3.org/2000/svg" viewBox="0 0 44.78 41.4"><defs><style>.cls-1{fill:none;stroke:#000;stroke-linecap:round;stroke-linejoin:round;stroke-width:2px;}</style></defs><title>Asset 5</title><g id="Layer_2" data-name="Layer 2"><g id="Layer_2-2" data-name="Layer 2"><path class="cls-1" d="M43.78,10.93v2.42A1.78,1.78,0,0,1,42,15.17h-8.5a1.78,1.78,0,0,1-1.75-1.82V10.93"/><path class="cls-1" d="M43.78,10.93S42.8,1,22.39,1"/><path class="cls-1" d="M31.79,10.93s-.89-3.44-9.4-3.44"/><path class="cls-1" d="M1,10.93v2.42a1.78,1.78,0,0,0,1.75,1.82h8.49A1.78,1.78,0,0,0,13,13.35V10.93"/><path class="cls-1" d="M1,10.93S2,1,22.39,1"/><path class="cls-1" d="M13,10.93s.89-3.44,9.4-3.44"/><path class="cls-1" d="M22.19,11.4h6l.06,7h9.94s4.05,16.26,4,16.87,1.48,5.13-4.85,5.13H7c-6.33,0-4.83-4.53-4.86-5.13s4-16.87,4-16.87h10v-7h6"/><circle class="cls-1" cx="22.38" cy="28.96" r="7.19"/></g></g></svg>