<svg xmlns="http://www.w3.org/2000/svg" width="19.448" height="20" viewBox="0 0 19.448 20">
  <path id="settings" d="M19.4,13c0-.3.1-.7.1-1a3.4,3.4,0,0,0-.1-1l2.1-1.5a.467.467,0,0,0,.1-.7l-2-3.5A.446.446,0,0,0,19,5L16.6,6.1a6.368,6.368,0,0,0-1.8-1l-.3-2.6A.472.472,0,0,0,14,2H10a.472.472,0,0,0-.5.5L9.2,5A7.677,7.677,0,0,0,7.4,6L5,5a.481.481,0,0,0-.6.2l-2,3.5c-.2.3-.2.6.1.7L4.6,11c0,.3-.1.7-.1,1a3.4,3.4,0,0,0,.1,1L2.5,14.5a.467.467,0,0,0-.1.7l2,3.5A.446.446,0,0,0,5,19l2.4-1.1a6.368,6.368,0,0,0,1.8,1l.3,2.6a.472.472,0,0,0,.5.5h4a.472.472,0,0,0,.5-.5l.3-2.6a7.677,7.677,0,0,0,1.8-1L19,19a.481.481,0,0,0,.6-.2l2-3.5a.616.616,0,0,0-.1-.7ZM12,16a4,4,0,1,1,4-4A4.012,4.012,0,0,1,12,16Z" transform="translate(-2.261 -2)" fill="#fff"/>
</svg>
