<svg xmlns="http://www.w3.org/2000/svg" width="48" height="50.544" viewBox="0 0 48 50.544"><g transform="translate(-17.155 -9.084)"><g transform="translate(-8.771 3.202) rotate(-3)"><path d="M48.987,32.294a8.762,8.762,0,0,1,7.8,11.524.869.869,0,0,0,.551,1.1.855.855,0,0,0,.275.045.87.87,0,0,0,.826-.6A10.5,10.5,0,0,0,49.09,30.555a.871.871,0,0,0-.1,1.738Z" transform="translate(0 -8.786)"/><path d="M51.122,21.163A15.307,15.307,0,0,1,64.108,40.595a.87.87,0,1,0,1.672.48A17.046,17.046,0,0,0,51.32,19.434a.87.87,0,0,0-.2,1.729Z" transform="translate(-0.916 -4.115)"/><path d="M53.189,11.359A21.1,21.1,0,0,1,70.651,37.75a.87.87,0,0,0,1.681.453,22.842,22.842,0,0,0-18.9-28.567.87.87,0,0,0-.241,1.724Z" transform="translate(-1.793 0)"/></g><path d="M46.557,37.182l-9-6.014a3.258,3.258,0,0,0-4.189.059c-3.5,2.873-5.582,2.049-5.92,1.879a22.114,22.114,0,0,1-6.741-4.813,27.47,27.47,0,0,1-5.812-7.74c-.373-.746-.8-3.254,1.65-5.869a3.217,3.217,0,0,0,.3-4.221c-.735-1.156-.735-1.156-1.313-2.006s-1.709-2.518-4.713-7.014A3.153,3.153,0,0,0,8,0,3.523,3.523,0,0,0,5.293,1.293l-3,3C.169,6.416,0,7.633,0,9c0,1.721,2.485,12.939,14.292,24.705C26.061,45.514,37.268,48,38.988,48h.066c1.355-.02,2.559-.2,4.652-2.293l3-3A3.518,3.518,0,0,0,48,40,3.151,3.151,0,0,0,46.557,37.182Zm-1.264,4.111-3,3c-1.684,1.684-2.416,1.695-3.305,1.707-.123,0-10.891-1.273-23.282-13.709C3.415,20.043,2,9.1,2,9c0-.887,0-1.586,1.706-3.293l3-3C7.233,2.182,7.443,2,8,2a1.189,1.189,0,0,1,1.156.555c3.009,4.5,4.15,6.186,4.721,7.025s.563.828,1.28,1.957a1.252,1.252,0,0,1-.07,1.779c-3.121,3.324-2.66,6.771-1.981,8.131a29.222,29.222,0,0,0,6.187,8.26,24.077,24.077,0,0,0,7.26,5.188,4.734,4.734,0,0,0,2.063.434,9.59,9.59,0,0,0,6.02-2.555,1.193,1.193,0,0,1,.789-.336,1.935,1.935,0,0,1,1.021.4l9,6.012A1.186,1.186,0,0,1,46,40C46,40.557,45.818,40.768,45.293,41.293Z" transform="translate(17.155 11.628)"/></g></svg>